<?xml version="1.0" standalone="no"?>
<!DOCTYPE svg PUBLIC "-//W3C//DTD SVG 1.1//EN" "http://www.w3.org/Graphics/SVG/1.1/DTD/svg11.dtd" >
<!--
2013-9-30: Created.
-->
<svg>
<metadata>
Created by iconfont
</metadata>
<defs>

<font id="iconfont" horiz-adv-x="1024" >
  <font-face
    font-family="iconfont"
    font-weight="500"
    font-stretch="normal"
    units-per-em="1024"
    ascent="896"
    descent="-128"
  />
    <missing-glyph />
    
    <glyph glyph-name="quan" unicode="&#59119;" d="M864.631949 301.39886c0-194.526415-157.70204-352.221993-352.235402-352.221993-194.533362 0-352.235402 157.695578-352.235402 352.221993 0 194.526415 157.70204 352.22097 352.235402 352.22097C706.92991 653.61983 864.631949 495.924251 864.631949 301.39886zM512.396547 591.198152c-160.057787 0-289.811166-129.748063-289.811166-289.799292 0-160.052253 129.753379-289.800315 289.811166-289.800315 160.057787 0 289.811166 129.748063 289.811166 289.800315C802.207714 461.450089 672.454335 591.198152 512.396547 591.198152zM512.396547 301.39886m-161.17733 0a157.5 157.5 0 1 0 322.35466 0 157.5 157.5 0 1 0-322.35466 0Z"  horiz-adv-x="1024" />

    
    <glyph glyph-name="commpany" unicode="&#58897;" d="M954.182-23.636l-46.545 0 0 442.182c0 25.693-20.852 46.545-46.545 46.545l-232.727 0 0-46.545 209.455 0c12.847 0 23.273-10.426 23.273-23.273l0-395.636c0-12.847-10.426-23.273-23.273-23.273l-279.273 0 0 791.273c0 25.693-20.852 46.545-46.545 46.545l-349.091 0c-25.693 0-46.545-20.852-46.545-46.545l0-791.273-46.545 0c-12.847 0-23.273-10.426-23.273-23.273 0-12.847 10.426-23.273 23.273-23.273l884.364 0c12.847 0 23.273 10.426 23.273 23.273 0 12.847-10.426 23.273-23.273 23.273zM512-23.636l-349.091 0 0 768c0 12.847 10.426 23.273 23.273 23.273l302.545 0c12.847 0 23.273-10.426 23.273-23.273l0-768zM232.727 465.091l69.818 0 0 69.818-69.818 0 0-69.818zM232.727 604.727l69.818 0 0 69.818-69.818 0 0-69.818zM372.364 465.091l69.818 0 0 69.818-69.818 0 0-69.818zM372.364 604.727l69.818 0 0 69.818-69.818 0 0-69.818z"  horiz-adv-x="1024" />

    
    <glyph glyph-name="yuzhuceqiyezhuanzheng" unicode="&#58993;" d="M188.587 676.268l147.2 0 0-108.8-147.2 0L188.587 676.268zM408.319 676.268l147.2 0 0-108.8-147.2 0L408.319 676.268 408.319 676.268zM188.587 492.801l147.2 0 0-108.8-147.2 0L188.587 492.801zM408.319 492.801l147.2 0 0-108.8-147.2 0L408.319 492.801 408.319 492.801zM773.118 492.801l72.53 0 0-108.8-72.53 0L773.118 492.801zM773.118 311.471l72.53 0 0-108.8-72.53 0L773.118 311.471zM188.587 311.471l147.2 0 0-108.8-147.2 0L188.587 311.471zM408.319 311.471l147.2 0 0-108.8-147.2 0L408.319 311.471 408.319 311.471zM992.847-19.198 992.847 640.001 700.588 640.001 700.588 859.732 41.387 859.732l0-876.8L5.12-17.068l0-72.53 1023.997 0 0 72.53-36.27 0L992.847-19.198zM113.92-19.198 113.92 787.2l511.999 0 0-804.268L113.92-17.068 113.92-19.198zM700.588-19.198 700.588 567.468l219.729 0 0-584.536L700.588-17.068 700.588-19.198z"  horiz-adv-x="1030" />

    
    <glyph glyph-name="yonghu1" unicode="&#58911;" d="M892.490698 591.817227c-18.137835 0-32.978035 15.043467-32.978035 33.653353L859.512662 681.500147c0 61.648818-44.285414 111.991601-98.866574 111.991601L167.573978 793.491748c-54.51598 0-98.868254-50.242325-98.868254-111.991601l0-582.539499c0-61.752971 44.386208-111.991601 98.868254-111.991601l131.777414 0c18.139515 0 32.979715-15.043467 32.979715-33.653353 0-18.507413-14.773004-33.582798-32.979715-33.582798L167.573978-80.267103c-90.759397 0-164.758809 80.357482-164.758809 179.125278L2.815169 681.432951c0 98.764101 73.898282 179.125278 164.758809 179.125278l593.038512 0c90.856831 0 164.755449-80.359162 164.755449-179.125278l0-56.029566C925.367939 606.860695 910.630213 591.817227 892.490698 591.817227zM134.661459 356.627441c0 18.507413 14.773004 33.584478 32.877242 33.584478l197.636051 0c18.238629 0 32.978035-15.041787 32.978035-33.584478 0-18.509092-14.773004-33.653353-32.978035-33.653353L167.538701 322.974088C149.434463 323.078577 134.661459 338.118349 134.661459 356.627441zM134.661459 558.233086c0 18.509092 14.773004 33.584478 32.877242 33.584478l263.657301 0c18.139515 0 32.878922-15.041787 32.878922-33.584478 0-18.609886-14.774684-33.582798-32.878922-33.582798L167.573978 524.650288C149.434463 524.682206 134.661459 539.723993 134.661459 558.233086zM612.64592 213.473773c-49.871068 36.682206-82.680778 96.007392-82.680778 163.312419 0 111.114695 88.738482 201.605308 197.636051 201.605308 108.895552 0 197.636051-90.490614 197.636051-201.605308 0-67.338289-32.811726-126.665491-82.684138-163.312419 105.127546-53.437487 181.450254-171.891647 181.450254-273.483012 0-18.608206-14.773004-33.584478-32.979715-33.584478-18.137835 0-32.877242 15.041787-32.877242 33.584478 0 92.877746-103.308219 235.186426-230.647348 235.186426-127.337449 0-230.647348-142.276763-230.647348-235.186426 0-18.608206-14.773004-33.584478-32.978035-33.584478-18.137835 0-32.877242 15.041787-32.877242 33.584478C431.196002 41.582462 507.518374 160.036622 612.64592 213.473773zM859.477384 376.786191c0 74.066272-59.021125 134.369493-131.775734 134.369493-72.756289 0-131.747176-60.271303-131.747176-134.369493 0-74.167066 59.0265-134.371173 131.780774-134.371173C800.45626 242.415018 859.477384 302.617446 859.477384 376.786191z"  horiz-adv-x="1025" />

    
    <glyph glyph-name="yonghuguanli" unicode="&#58880;" d="M668.294672 217.027128c75.967182 0 137.553842 61.584614 137.553842 137.553842 0 75.967182-61.58666 137.551796-137.553842 137.551796-75.971275 0-137.557936-61.584614-137.557936-137.551796C530.736736 278.611741 592.323397 217.027128 668.294672 217.027128zM746.894821 177.72603 589.69043 177.72603c-108.527762 0-196.505489-87.979774-196.505489-196.507536l0-19.650549c0-10.851139 8.797363-19.648502 19.650549-19.648502l510.915295 0c10.855232 0 19.650549 8.797363 19.650549 19.648502l0 19.650549C943.400311 89.746256 855.422583 177.72603 746.894821 177.72603zM766.547417 619.863892 255.630075 619.863892c-10.853186 0-19.650549-8.797363-19.650549-19.650549l0-19.650549c0-10.851139 8.797363-19.650549 19.650549-19.650549l510.917342 0c10.853186 0 19.650549 8.79941 19.650549 19.650549l0 19.650549C786.197966 611.066529 777.400602 619.863892 766.547417 619.863892zM373.535415 482.31005l-117.90534 0c-10.853186 0-19.650549-8.797363-19.650549-19.650549l0-19.648502c0-10.855232 8.797363-19.652596 19.650549-19.652596l117.90534 0c10.851139 0 19.648502 8.797363 19.648502 19.652596l0 19.648502C393.184941 473.512686 384.386554 482.31005 373.535415 482.31005zM373.535415 344.756207l-117.90534 0c-10.853186 0-19.650549-8.797363-19.650549-19.650549l0-19.650549c0-10.853186 8.797363-19.650549 19.650549-19.650549l117.90534 0c10.851139 0 19.648502 8.797363 19.648502 19.650549l0 19.650549C393.184941 335.958844 384.386554 344.756207 373.535415 344.756207zM373.535415 207.202365l-117.90534 0c-10.853186 0-19.650549-8.797363-19.650549-19.650549l0-19.650549c0-10.851139 8.797363-19.650549 19.650549-19.650549l117.90534 0c10.851139 0 19.648502 8.79941 19.648502 19.650549L393.183917 187.551816C393.184941 198.403978 384.386554 207.202365 373.535415 207.202365zM314.582745-38.427962 314.582745-18.777413c0 20.545942 3.15997 40.34794 9.014304 58.951647L216.327954 40.174234c-32.555463 0-58.9496 26.393113-58.9496 58.951647L157.378353 649.342274c0 32.55751 26.39516 58.9496 58.9496 58.9496l589.517491 0c32.559557 0 58.953693-26.393113 58.953693-58.9496l0-409.364435c31.29782-13.675464 58.335616-35.273365 78.601172-62.250786l0.00307 0c7.161097 0 13.868869-1.924839 19.650549-5.27105L963.053929 708.291874c0 54.262858-43.989887 98.252745-98.254791 98.252745L157.378353 806.544619c-54.262858 0-98.250698-43.989887-98.250698-98.252745l0-668.119687c0-54.262858 43.98784-98.252745 98.250698-98.252745l707.420785 0c0.008186 0 0.016373 0 0.023536 0l-530.58938 0.002047C323.381132-58.078511 314.582745-49.281147 314.582745-38.427962z"  horiz-adv-x="1024" />

    
    <glyph glyph-name="shigongdanwei" unicode="&#59030;" d="M680.937109 438.854329l111.284549 0 0-111.284549-111.284549 0 0 111.284549ZM235.798912 661.423427l111.284549 0 0-111.284549-111.284549 0 0 111.284549ZM402.725736 661.423427l111.284549 0 0-111.284549-111.284549 0 0 111.284549ZM235.798912 438.854329l111.284549 0 0-111.284549-111.284549 0 0 111.284549ZM402.725736 438.854329l111.284549 0 0-111.284549-111.284549 0 0 111.284549ZM235.798912 216.285231l111.284549 0 0-111.284549-111.284549 0 0 111.284549ZM402.725736 216.285231l111.284549 0 0-111.284549-111.284549 0 0 111.284549ZM680.937109 216.285231l111.284549 0 0-111.284549-111.284549 0 0 111.284549ZM929.316036-4.680347l-25.810852 0 0 526.971993c0 22.306029-8.694009 43.279712-24.506137 59.010999-15.757892 15.757892-36.679387 24.452925-58.956763 24.452925L625.294834 605.75557 625.294834 744.859721c0 22.306029-8.694009 43.279712-24.506137 59.010999-15.757892 15.757892-36.679387 24.452925-58.956763 24.452925l-333.853647 0c-22.278399 0-43.25413-8.694009-58.956763-24.425296-15.812127-15.730263-24.506137-36.70497-24.506137-59.037605l0-749.541091-29.831422 0c-15.377222 0-27.821649-12.443403-27.821649-27.821649s12.443403-27.821649 27.821649-27.821649l834.634118 0c15.377222 0 27.821649 12.443403 27.821649 27.821649S944.694281-4.680347 929.316036-4.680347zM820.042283 550.112272c7.443529 0 14.398942-2.907213 19.669992-8.178263 5.27105-5.243421 8.151657-12.225439 8.151657-19.642362l0-526.971993L625.294834-4.680347 625.294834 550.112272 820.042283 550.112272zM180.156638 744.859721c0 7.443529 2.879584 14.426571 8.150634 19.669992 5.27105 5.244444 12.226462 8.151657 19.671015 8.151657l333.853647 0c7.443529 0 14.398942-2.907213 19.669992-8.178263 5.27105-5.243421 8.151657-12.225439 8.151657-19.642362l0-139.106198 0-610.434893L180.156638-4.680347 180.156638 744.859721z"  horiz-adv-x="1024" />

    
    <glyph glyph-name="youjiantou" unicode="&#58900;" d="M288.768 809.472c-12.288-12.288-12.288-32.768 0-45.056l22.528-22.528 334.336-334.336c12.288-12.288 12.288-32.768 0-45.056l-335.36-335.36-22.528-22.528c-12.288-12.288-12.288-32.768 0-45.056 12.288-12.288 32.768-12.288 45.056 0l402.944 402.944c12.288 12.288 12.288 32.768 0 45.056l-402.432 402.432c-11.776 11.776-32.256 11.776-44.544-0.512z"  horiz-adv-x="1024" />

    
    <glyph glyph-name="arrdown" unicode="&#58881;" d="M508.7490000000001 223.50699999999995l-389.1100000000002 389.0219999999997c-13.026000000000007 13.025999999999991-32.43300000000001 13.025999999999978-45.370999999999995-7.105427357601002e-15-12.93899999999999-13.026000000000005-13.025999999999978-32.43300000000001 7.105427357601002e-15-45.370999999999995l408.5160000000002-408.42999999999967c6.469000000000002-6.468999999999996 19.49500000000001-13.025999999999986 25.964000000000006-13.02599999999999s19.495 1.0658141036401503e-14 25.964 6.469000000000015l414.9849999999997 414.98500000000035c13.025999999999991 13.026000000000007 13.025999999999978 32.43300000000001-7.105427357601002e-15 45.370999999999995-13.026000000000005 12.93899999999999-32.43300000000001 13.025999999999978-45.370999999999995-7.105427357601002e-15l-395.577-389.02100000000013z"  horiz-adv-x="1024" />

    
    <glyph glyph-name="lingxing" unicode="&#58889;" d="M0 374.437572L502.437572 896 1024 393.562428 521.562428-128z"  horiz-adv-x="1029" />

    
    <glyph glyph-name="chevron-copy-copy-copy" unicode="&#58893;" d="M492.286 614.85l-421.134-421.103c-12.223-12.255-12.223-32.062 0-44.317 12.255-12.255 32.093-12.255 44.348 0l400.575 400.544 393.962-393.93c11.879-11.91 31.154-11.91 43.032 0 11.941 11.878 11.941 31.154 0 43.062l-409.1 409.131c-1.598 1.598-3.542 2.382-5.391 3.542-0.721 0.971-1.097 2.163-2.005 3.072-12.223 12.223-32.063 12.223-44.286 0z"  horiz-adv-x="1024" />

    
    <glyph glyph-name="icon--" unicode="&#59284;" d="M604.16 624.64c-40.96-40.96-40.96-107.52 0-151.04 40.96-40.96 107.52-40.96 151.04 0 40.96 40.96 40.96 107.52 0 151.04-43.52 40.96-110.08 40.96-151.04 0zM716.8 512c-20.48-20.48-53.76-20.48-74.24 0-20.48 20.48-20.48 53.76 0 74.24 20.48 20.48 53.76 20.48 74.24 0 20.48-20.48 20.48-53.76 0-74.24z m156.16 281.6H529.92c-28.16 0-33.28-12.8-58.88-38.4L133.12 417.28c-40.96-40.96-40.96-107.52 0-151.04l263.68-261.12c40.96-40.96 107.52-40.96 151.04 0l337.92 337.92c20.48 20.48 38.4 33.28 38.4 58.88V744.96c-2.56 25.6-25.6 48.64-51.2 48.64zM509.44 43.52c-20.48-20.48-53.76-20.48-74.24 0L171.52 304.64c-20.48 20.48-20.48 53.76 0 74.24l38.4 38.4 337.92-337.92-38.4-35.84z m363.52 384c0-12.8-12.8-33.28-25.6-46.08L583.68 117.76 245.76 455.68 509.44 716.8c12.8 12.8 30.72 28.16 46.08 28.16h294.4c12.8 0 25.6-10.24 25.6-25.6v-291.84z"  horiz-adv-x="1024" />

    
    <glyph glyph-name="zhihuiguangchang" unicode="&#58973;" d="M338.6 384.3c0 227.7 92.3 409.9 195.9 409.9 103.6 0 195.9-182.2 195.9-409.9s-92.3-409.9-195.9-409.9c-103.5 0-195.9 182.2-195.9 409.9z m434 0c0 246.4-102.1 447.8-238 447.8s-238-201.9-238-447.8 102.1-447.8 238-447.8c135.9-0.1 238 201.4 238 447.8zM96.9 131c66.3-111.5 303.8-90.5 532.3 37.5 228.5 128 366.1 316.4 299.8 428.4-47.7 79.8-183.8 93-347 42.8-10.5-3.4-16.6-14.6-12.6-25.3 3.5-10.2 14.6-15.6 25.1-12.7 147.1 45.3 264.1 34.1 299.3-24.8 50.7-85.2-73.3-255.6-284.7-373.9s-425.8-137.3-476.5-52.1 72.8 255.6 284.2 373.9c9.5 5.4 13.1 17.5 7.5 27.3-5.5 9.2-18.1 12.7-27.6 7.3-229-128.1-366-316.9-299.8-428.4zM928.7 131.3c44.7 74.5-1.5 185.1-111.5 290.7-8 7.8-20.6 7.8-29.1 0.5-8-7.8-8-20-0.5-28.2l0.5-0.5c98.5-95 137.6-188.5 105-243-35.2-58.9-151.7-70.1-298.4-25.3-10.5 3.4-22.1-2.4-25.6-13.1-3.5-10.2 2.5-21.4 13.6-24.8 163.2-49.4 298.8-36.2 346 43.7zM96.9 596.8c-66.3-111.5 70.8-300.5 299.9-428.6 10-5.4 22.1-1.9 27.6 7.3 5.5 9.3 2 21.4-7.5 26.8-211.5 118.3-335.5 288.8-284.8 374s265.2 67.2 476.7-51.1c10-5.4 22.1-1.9 27.6 7.3 5.5 9.3 2 21.4-7.5 26.8-228.1 128.1-465.7 149.1-532 37.5zM524.4 375.2m-128.7 0a128.7 128.7 0 1 1 257.4 0 128.7 128.7 0 1 1-257.4 0Z"  horiz-adv-x="1024" />

    
    <glyph glyph-name="jiantou-copy-copy" unicode="&#58927;" d="M256.293 391.451l459.642-447.973 52.012 50.73200001-407.574 397.21099999 407.542 397.21-51.975 50.733z"  horiz-adv-x="1024" />

    
    <glyph glyph-name="dengjizongshu" unicode="&#58924;" d="M944.014 184.332L798.505 38.823 696.633-63.053h-96.869a30.514 30.514 0 0 0-30.293 30.3v97.1l101.757 101.755 145.51 145.51a50 50 0 0 0 70.711 0l56.565-56.565a50 50 0 0 0 0-70.715z m-63.639 49.5l-14.142 14.142a20 20 0 0 1-28.285 0l-208.477-208.48v-42.547h42.309l208.6 208.6a20 20 0 0 1-0.005 28.283z m-35.047 150.215a30 30 0 0 0-30 30v337a20 20 0 0 1-20 20h-650a20 20 0 0 1-20-20v-734a20 20 0 0 1 20-20h306a30 30 0 0 0 0-60h-336a50 50 0 0 0-50 50v794a50 50 0 0 0 50 50h710a50 50 0 0 0 50-50v-367a30 30 0 0 0-30-30z m-629 145.021a29.979 29.979 0 0 0 29.979 29.979h448.042a29.979 29.979 0 1 0 0-59.957H246.307a29.979 29.979 0 0 0-29.979 29.978z m365.021-175.021H246.307a29.979 29.979 0 0 0-29.979 29.979v0.042a29.979 29.979 0 0 0 29.979 29.979h335.042a29.979 29.979 0 0 0 29.979-29.979v-0.042a29.979 29.979 0 0 0-29.979-29.979z m-335.042-145a29.979 29.979 0 1 0 0 59.957h221.226a29.979 29.979 0 1 0 0-59.957H246.307z"  horiz-adv-x="1024" />

    
    <glyph glyph-name="quan1" unicode="&#58904;" d="M512-128c-281.6 0-512 230.4-512 512s230.4 512 512 512 512-230.4 512-512-230.4-512-512-512zM512 832C262.4 832 64 633.6 64 384s198.4-448 448-448 448 198.4 448 448-198.4 448-448 448zM512 384m-249.6 0a249.6 249.6 0 1 1 499.2 0 249.6 249.6 0 1 1-499.2 0Z"  horiz-adv-x="1024" />

    
    <glyph glyph-name="danwei" unicode="&#59154;" d="M670.742358-127.254731H74.526929V817.746725A78.253275 78.253275 0 0 0 149.053857 896h438.218341C639.441048 896 670.742358 874.387191 670.742358 821.473071z m-521.688501 74.526929h447.161572V790.171761A33.537118 33.537118 0 0 1 564.16885 821.473071H182.590975a33.537118 33.537118 0 0 1-33.537118-31.30131zM968.850073-124.273654H596.215429v521.688501c0 47.697234 19.377001 74.526929 68.564775 74.526929h234.759825a67.074236 67.074236 0 0 0 67.074236-67.074236z m-298.107715 74.526929h223.580786V378.783115a17.141194 17.141194 0 0 1-17.141193 17.141194H686.393013A17.141194 17.141194 0 0 1 670.742358 374.311499zM1006.113537-128H36.518195a36.518195 36.518195 0 0 0-36.518195 36.518195 38.754003 38.754003 0 0 0 37.263464 38.008734h968.850073a38.754003 38.754003 0 0 0 35.772926-38.008734 36.518195 36.518195 0 0 0-35.772926-36.518195zM196.751092 748.436681l129.676856 0 0-56.640466-129.676856 0 0 56.640466ZM418.841339 748.436681l130.422125 0 0-56.640466-130.422125 0 0 56.640466ZM196.751092 599.382824l129.676856 0 0-56.640466-129.676856 0 0 56.640466ZM418.841339 599.382824l130.422125 0 0-56.640466-130.422125 0 0 56.640466ZM196.751092 450.328967l129.676856 0 0-56.640466-129.676856 0 0 56.640466ZM418.841339 450.328967l130.422125 0 0-56.640466-130.422125 0 0 56.640466Z"  horiz-adv-x="1042" />

    
    <glyph glyph-name="yonghu" unicode="&#58885;" d="M810.666667 469.333333a170.666667 170.666667 0 1 0-170.666667 170.666667 170.666667 170.666667 0 0 0 170.666667-170.666667z m-85.333334 0a85.333333 85.333333 0 1 1-85.333333-85.333333 85.333333 85.333333 0 0 1 85.333333 85.333333zM128 0V725.333333h768v-508.586666a39.68 39.68 0 0 1 12.373333-28.16 42.666667 42.666667 0 0 1 72.96 29.44V725.333333a85.333333 85.333333 0 0 1-85.333333 85.333334H128a85.333333 85.333333 0 0 1-85.333333-85.333334v-725.333333a85.333333 85.333333 0 0 1 85.333333-85.333333h88.746667a42.666667 42.666667 0 0 1 42.666666 36.693333 42.666667 42.666667 0 0 1-42.666666 47.786667zM881.066667-85.333333H398.933333a85.333333 85.333333 0 0 0-81.493333 111.786666 341.333333 341.333333 0 0 0 645.12 0A85.333333 85.333333 0 0 0 881.066667-85.333333z m0 85.333333a256 256 0 0 1-482.56 0zM213.333333 640l213.333334 0 0-85.333333-213.333334 0 0 85.333333ZM213.333333 469.333333l213.333334 0 0-85.333333-213.333334 0 0 85.333333ZM213.333333 298.666667l213.333334 0 0-85.333334-213.333334 0 0 85.333334Z"  horiz-adv-x="1024" />

    
    <glyph glyph-name="qiye" unicode="&#59500;" d="M571.52 443.584V-112h119.072V126.176h198.4V-112H1008V443.584H571.52z m0 59.504h436.416v59.584H571.504v-59.584zM75.568 264.96h119.008v-119.008H75.584V264.96z m257.824 0h119.088v-119.008h-119.088V264.96zM75.584 503.088h119.008V384H75.584v119.088z m257.824 0h119.088V384h-119.088v119.088zM75.584 760.96h119.008v-119.008H75.584V760.96z m257.824 0h119.088v-119.008h-119.088V760.96zM16-111.984h495.936V880H16v-992z"  horiz-adv-x="1024" />

    
    <glyph glyph-name="ICONbiaozhun-" unicode="&#59064;" d="M416 352a160 160 0 1 0 160 160 160 160 0 0 0-160-160z m0 256a96 96 0 1 1 96-96 96 96 0 0 1-96 96zM640 128a32 32 0 0 0-32 32 192 192 0 0 1-384 0 32 32 0 0 0-64 0 256 256 0 0 0 512 0 32 32 0 0 0-32-32zM864-32H160a96 96 0 0 0-96 96V704a96 96 0 0 0 96 96h704a96 96 0 0 0 96-96v-640a96 96 0 0 0-96-96zM160 736a32 32 0 0 1-32-32v-640a32 32 0 0 1 32-32h704a32 32 0 0 1 32 32V704a32 32 0 0 1-32 32zM832 544h-192a32 32 0 0 0 0 64h192a32 32 0 0 0 0-64zM832 384h-160a32 32 0 0 0 0 64h160a32 32 0 0 0 0-64zM832 224h-96a32 32 0 0 0 0 64h96a32 32 0 0 0 0-64z"  horiz-adv-x="1024" />

    
    <glyph glyph-name="weixin" unicode="&#59003;" d="M594.17833 344.026093m-32.243049 0a32.243049 32.243049 0 1 1 64.486098 0 32.243049 32.243049 0 1 1-64.486098 0ZM514.172126 521.847501m-39.471752 0a39.471751 39.471751 0 1 1 78.943503 0 39.471751 39.471751 0 1 1-78.943503 0ZM343.194045 521.847501m-39.471752 0a39.471751 39.471751 0 1 1 78.943503 0 39.471751 39.471751 0 1 1-78.943503 0ZM755.627136 344.026093m-32.243049 0a32.243049 32.243049 0 1 1 64.486098 0 32.243049 32.243049 0 1 1-64.486098 0ZM868.098271 896H155.866718A155.878384 155.878384 0 0 1 0.000012 740.074904v-712.184842a155.878384 155.878384 0 0 1 155.866706-155.890062h712.231553a155.890062 155.890062 0 0 1 155.901741 155.890062V740.074904A155.890062 155.890062 0 0 1 868.098271 896zM422.604669 223.041671c-32.616746 0-58.845608 6.644801-91.532422 13.126109l-91.357252-45.812923 26.135437 78.616518c-65.396985 45.719499-104.576785 104.646854-104.576785 176.420044 0 124.336017 117.679538 222.27968 261.331022 222.27968 128.458363 0 241.057957-78.242821 263.678307-183.520288a226.226855 226.226855 0 0 1-25.166161 1.553178c-124.172525-0.035034-222.186256-92.688548-222.186256-206.911388a194.742878 194.742878 0 0 1 8.092877-54.711585c-8.092877-0.642292-16.220788-1.039345-24.418767-1.039345z m385.480191-91.5441l19.642451-65.24517-71.679766 39.249868c-26.135438-6.551377-52.387656-13.114431-78.417992-13.114431-124.336017 0-222.268002 84.981046-222.268001 189.651256 0 104.483361 97.931985 189.639578 222.268001 189.639578 117.422622 0 221.976051-85.167895 221.976051-189.639578 0.011678-58.997423-39.06302-111.186552-91.520744-150.541523z"  horiz-adv-x="1024" />

    


  </font>
</defs>
</svg>
